<svg
  xmlns="http://www.w3.org/2000/svg"
  viewBox="0 0 190 250"
  fill="#3c3c44"
>
  <g transform="translate(5, 5)">
    <path
      d="M0 85 A10 10 0 0 1 10 75 L30 75 A10 10 0 0 1 40 85 L40 170 A30 30 0 0 0 70 200 L110 200 A30 30 0 0 0 140 170 L140 10 A10 10 0 0 1 150 0 L170 0 A10 10 0 0 1 180 10 L180 170 A70 70 0 0 1 110 240 L70 240 A70 70 0 0 1 0 170 L0 85 Z"
    >
    </path>

    <g transform="translate(70, 0)">
      <path
        d="M0 47.5 A10 10 0 0 1 10 37.5 L30 37.5 A10 10 0 0 1 40 47.5 L40 160 A10 10 0 0 1 30 170 L10 170 A10 10 0 0 1 0 160 Z"
      >
      </path>
    </g>
  </g>
</svg>
