<?xml version="1.0" standalone="no"?>
<!DOCTYPE svg PUBLIC "-//W3C//DTD SVG 20010904//EN"
 "http://www.w3.org/TR/2001/REC-SVG-20010904/DTD/svg10.dtd">
<svg version="1.0" xmlns="http://www.w3.org/2000/svg"
 width="1000.000000pt" height="1000.000000pt" viewBox="0 0 1000.000000 1000.000000"
 preserveAspectRatio="xMidYMid meet">
<metadata>
Created by potrace 1.14, written by Peter Selinger 2001-2017
</metadata>
<g transform="translate(0.000000,1000.000000) scale(0.100000,-0.100000)"
fill="#000000" stroke="none">
<path d="M7539 9805 c-2 -2 -50 -5 -106 -6 -99 -3 -190 -22 -205 -43 -4 -6 -8
-7 -8 -3 0 11 -80 -46 -111 -80 -90 -96 -121 -214 -106 -393 1 -14 -1 -37 -4
-51 -4 -15 -3 -32 1 -40 5 -7 4 -21 -1 -31 -6 -11 -6 -18 0 -18 5 0 6 -14 1
-34 -4 -19 -6 -37 -4 -39 9 -9 12 -47 5 -52 -5 -2 -5 -22 -1 -44 4 -21 3 -46
-2 -55 -6 -10 -5 -16 1 -16 7 0 7 -8 1 -24 -5 -13 -6 -26 -4 -29 9 -8 10 -70
3 -98 -4 -15 -3 -32 1 -40 5 -7 4 -21 -1 -31 -6 -11 -6 -18 0 -18 5 0 6 -14 1
-34 -4 -19 -6 -37 -4 -39 9 -9 12 -47 5 -52 -5 -2 -5 -22 -1 -44 4 -21 3 -46
-2 -55 -6 -10 -5 -16 1 -16 7 0 7 -8 1 -24 -5 -13 -6 -26 -4 -29 9 -8 10 -70
3 -98 -4 -15 -3 -32 1 -40 5 -7 4 -21 -1 -30 -6 -12 -5 -20 1 -24 8 -5 8 -11
1 -19 -6 -7 -9 -15 -6 -18 2 -2 5 -38 5 -79 0 -41 0 -83 0 -94 0 -11 0 -29 0
-40 -1 -11 -1 -27 0 -35 0 -8 0 -26 -1 -40 0 -14 0 -32 0 -40 0 -8 1 -46 0
-85 0 -38 0 -77 1 -85 0 -8 0 -24 0 -35 -1 -11 -1 -27 0 -35 0 -8 0 -26 -1
-40 0 -14 0 -32 0 -40 0 -8 1 -46 0 -85 0 -38 0 -77 1 -85 0 -8 0 -24 0 -35
-1 -11 -1 -27 0 -35 0 -8 0 -26 -1 -40 0 -14 0 -32 0 -40 0 -8 1 -46 0 -85 0
-38 0 -77 1 -85 0 -8 0 -24 0 -35 -1 -11 -1 -27 0 -35 0 -8 0 -26 -1 -40 0
-14 0 -31 0 -37 2 -24 2 -38 2 -68 -1 -16 0 -43 2 -60 1 -16 -1 -42 -4 -56 -4
-15 -3 -32 1 -40 5 -7 4 -21 -1 -31 -6 -11 -6 -18 0 -18 5 0 6 -14 1 -34 -4
-19 -6 -37 -4 -39 9 -9 12 -47 5 -52 -5 -2 -5 -22 -1 -44 4 -21 3 -46 -2 -55
-6 -10 -5 -16 1 -16 7 0 7 -8 1 -24 -5 -13 -6 -26 -4 -29 9 -8 10 -70 3 -98
-4 -15 -3 -32 1 -40 5 -7 4 -21 -1 -31 -6 -11 -6 -18 0 -18 5 0 6 -14 1 -34
-4 -19 -6 -37 -4 -39 9 -9 12 -47 5 -52 -5 -2 -5 -22 -1 -44 4 -21 3 -46 -2
-55 -6 -10 -5 -16 1 -16 7 0 7 -8 1 -24 -5 -13 -6 -26 -4 -29 9 -8 10 -70 3
-98 -4 -15 -3 -32 1 -40 5 -7 4 -21 -1 -30 -6 -12 -5 -20 1 -24 8 -5 8 -11 1
-19 -6 -7 -9 -15 -6 -18 2 -2 5 -38 5 -79 0 -41 0 -83 0 -94 0 -11 0 -29 0
-40 -1 -11 -1 -27 0 -35 0 -8 0 -26 -1 -40 0 -14 0 -32 0 -40 0 -8 1 -46 0
-85 0 -38 0 -77 1 -85 0 -8 0 -24 0 -35 -1 -11 -1 -27 0 -35 0 -8 0 -26 -1
-40 0 -14 0 -31 0 -37 2 -24 2 -38 2 -68 -1 -16 0 -43 2 -60 1 -16 -1 -42 -4
-56 -4 -15 -3 -32 1 -40 5 -7 4 -21 -1 -31 -6 -11 -6 -18 0 -18 5 0 6 -14 1
-34 -4 -19 -6 -37 -4 -39 9 -9 12 -47 5 -52 -5 -2 -5 -22 -1 -44 4 -21 3 -46
-2 -55 -6 -10 -5 -16 1 -16 7 0 7 -8 1 -24 -5 -13 -6 -26 -4 -29 9 -8 10 -70
3 -98 -4 -15 -3 -32 1 -40 5 -7 4 -21 -1 -31 -6 -11 -6 -18 0 -18 5 0 6 -14 1
-34 -4 -19 -6 -37 -4 -39 9 -9 12 -47 5 -52 -5 -2 -5 -22 -1 -44 4 -21 3 -46
-2 -55 -6 -10 -5 -16 1 -16 7 0 7 -8 1 -24 -5 -13 -6 -26 -4 -29 9 -8 10 -70
3 -98 -4 -15 -3 -32 1 -40 5 -7 4 -21 -1 -30 -6 -12 -5 -20 1 -24 6 -4 7 -11
4 -17 -6 -10 -7 -80 -1 -153 1 -16 -1 -42 -4 -56 -4 -15 -3 -32 1 -40 5 -7 4
-21 -1 -31 -6 -11 -6 -18 0 -18 5 0 6 -14 1 -34 -4 -19 -6 -37 -4 -39 9 -9 12
-47 5 -52 -5 -2 -5 -22 -1 -44 4 -22 3 -45 -1 -52 -4 -8 -3 -19 2 -25 7 -8 6
-14 -1 -19 -6 -3 -8 -10 -6 -14 12 -19 3 -252 -11 -296 -4 -11 -7 -29 -7 -40
-1 -11 -5 -26 -9 -33 -5 -6 -6 -12 -3 -12 3 0 -2 -21 -10 -47 -8 -27 -17 -56
-19 -66 -8 -36 -108 -237 -118 -237 -6 0 -8 -3 -4 -6 3 -3 2 -11 -3 -18 -5 -6
-32 -40 -60 -76 -76 -97 -189 -210 -210 -210 -6 0 -10 -3 -10 -7 0 -5 -17 -19
-38 -33 -20 -14 -40 -29 -44 -35 -5 -7 -8 -7 -8 0 0 6 -4 5 -8 -1 -13 -20
-165 -92 -260 -124 -110 -35 -255 -61 -342 -60 -8 0 -41 0 -73 1 -33 0 -61 -2
-63 -4 -3 -3 -21 -1 -40 3 -18 4 -34 4 -34 -1 0 -4 -10 -5 -22 0 -13 4 -35 5
-50 0 -16 -4 -28 -4 -28 1 0 5 -12 5 -27 1 -16 -4 -39 -5 -53 -1 -14 3 -36 4
-50 0 -14 -3 -40 -3 -57 1 -18 4 -33 3 -33 -2 0 -4 -10 -5 -22 0 -13 4 -35 5
-50 0 -16 -4 -28 -4 -28 1 0 5 -12 5 -27 1 -16 -4 -39 -5 -53 -1 -14 3 -36 4
-50 0 -14 -3 -40 -3 -57 1 -18 4 -33 3 -33 -2 0 -4 -10 -5 -22 0 -13 4 -35 5
-50 0 -16 -4 -28 -4 -28 1 0 5 -12 5 -27 1 -16 -4 -39 -5 -53 -1 -14 3 -36 4
-50 0 -14 -3 -40 -3 -57 1 -18 4 -33 3 -33 -2 0 -4 -10 -5 -22 0 -13 4 -35 5
-50 0 -17 -5 -28 -4 -28 2 0 6 -5 7 -11 4 -10 -7 -83 -8 -144 -2 -16 1 -42 -1
-56 -4 -15 -4 -32 -3 -40 1 -7 5 -21 4 -31 -1 -12 -6 -18 -6 -18 0 0 6 -11 6
-29 1 -16 -4 -32 -6 -34 -4 -3 3 -42 7 -88 9 -87 5 -95 6 -169 24 -25 7 -54
14 -64 16 -39 9 -122 39 -166 59 -72 34 -200 109 -200 118 0 4 -4 8 -10 8 -15
0 -47 28 -148 130 -108 108 -122 124 -122 134 0 4 -8 16 -18 27 -11 10 -25 32
-33 47 -8 15 -16 29 -19 32 -29 29 -124 280 -136 360 -3 19 -7 43 -10 52 -5
16 -16 175 -15 208 2 58 -1 155 -5 161 -2 4 0 11 6 14 7 5 8 11 1 19 -5 6 -6
17 -2 25 4 7 5 30 1 52 -4 21 -4 39 0 39 3 0 5 17 2 37 -2 21 -3 44 -3 51 1
11 1 38 1 77 -1 24 -1 143 0 163 0 98 -2 157 -6 163 -2 4 0 11 6 14 7 5 8 11
1 19 -5 6 -6 17 -2 25 4 7 5 30 1 52 -4 21 -4 39 0 39 3 0 5 17 2 38 -2 20 -3
43 -3 50 1 11 1 38 1 77 -1 24 -1 143 0 163 0 98 -2 157 -6 163 -2 4 0 11 6
14 7 5 8 11 1 19 -5 6 -6 17 -2 25 4 7 5 30 1 52 -4 21 -4 39 0 39 3 0 5 17 2
38 -2 20 -3 43 -3 50 0 6 1 23 1 37 0 14 0 33 0 43 0 109 -2 157 -5 161 -3 2
0 10 6 17 7 8 7 14 -1 19 -6 4 -7 12 -1 24 5 9 6 23 1 30 -4 8 -5 25 -1 40 3
14 5 40 4 56 -6 73 -5 143 1 153 3 6 2 13 -4 17 -6 4 -7 12 -1 24 5 9 6 23 1
30 -4 8 -5 25 -1 40 3 14 5 40 4 56 -6 61 -5 134 2 144 3 6 2 11 -4 11 -6 0
-7 11 -2 28 5 15 4 37 0 50 -5 12 -4 22 0 22 5 0 5 16 1 34 -4 19 -5 37 -3 40
3 3 5 26 4 53 -1 53 -1 57 -2 157 0 38 -2 73 -5 77 -2 4 0 11 6 14 7 5 8 11 1
19 -5 6 -6 17 -2 25 4 7 5 30 1 52 -4 21 -4 39 -1 39 4 0 6 15 4 33 -2 17 -3
42 -3 55 3 157 -11 231 -57 306 -31 50 -118 136 -138 136 -8 0 -15 4 -15 8 0
4 -24 17 -52 27 -51 19 -168 27 -328 25 -30 -1 -64 -1 -75 0 -11 1 -27 1 -35
1 -8 0 -44 0 -80 0 -36 0 -72 0 -80 0 -46 -2 -103 0 -110 4 -5 3 -11 2 -14 -3
-3 -4 -30 -5 -61 -2 -30 3 -58 4 -60 2 -4 -4 -97 -5 -112 -1 -5 1 -12 0 -18
-1 -5 -1 -23 -4 -40 -7 -16 -2 -62 -19 -101 -37 -114 -54 -206 -179 -218 -298
-4 -33 -6 -270 -5 -428 0 -8 0 -80 0 -160 0 -80 0 -152 0 -160 0 -8 0 -80 0
-160 0 -80 0 -152 0 -160 1 -75 0 -325 -2 -360 -1 -25 -1 -49 -1 -55 0 -5 1
-347 1 -760 0 -412 0 -759 0 -770 7 -484 11 -699 15 -735 14 -117 19 -150 41
-255 9 -44 18 -91 21 -105 6 -35 33 -127 50 -172 8 -21 12 -38 10 -38 -2 0 19
-57 46 -127 28 -71 55 -143 61 -160 7 -18 15 -33 19 -33 5 0 8 -9 8 -19 0 -11
3 -21 8 -23 4 -1 27 -43 52 -92 24 -49 65 -121 91 -160 25 -39 57 -89 71 -112
15 -22 33 -47 41 -55 7 -8 16 -19 18 -25 18 -48 270 -322 399 -434 86 -75 94
-82 126 -105 15 -11 32 -25 38 -31 6 -5 47 -35 91 -64 44 -30 82 -58 83 -62 2
-5 8 -8 13 -8 5 0 42 -20 82 -44 73 -44 317 -168 317 -161 0 2 28 -9 63 -24
34 -16 109 -43 167 -60 58 -18 112 -35 120 -38 8 -4 26 -8 40 -10 14 -2 44
-11 68 -19 23 -7 46 -13 50 -12 4 1 21 -1 37 -5 46 -11 76 -16 125 -23 25 -3
56 -8 70 -10 74 -15 337 -24 665 -24 132 0 276 1 320 1 44 0 190 0 325 0 135
0 279 0 320 0 466 -2 600 4 780 35 19 4 44 8 55 10 32 5 79 14 95 19 8 2 30 7
49 10 19 3 41 10 50 14 9 5 18 9 21 9 15 1 70 15 103 28 20 8 37 12 37 9 0 -3
13 1 29 10 17 8 38 17 48 18 10 2 31 9 46 15 16 7 30 12 33 12 21 0 329 152
424 209 243 148 490 353 660 551 30 35 70 79 87 99 18 20 33 40 33 44 0 4 13
22 30 40 16 18 30 38 30 45 0 6 5 12 10 12 6 0 10 6 10 14 0 8 4 16 8 18 8 3
73 101 114 173 22 37 157 304 157 310 1 3 7 20 15 38 7 19 17 45 21 58 4 13
13 38 20 54 26 60 71 217 96 333 5 24 11 47 14 52 3 4 7 25 9 46 2 22 9 69 15
106 33 198 32 162 32 1683 0 105 0 321 0 480 0 160 -1 387 -1 505 0 118 0 253
0 300 0 94 -1 549 -1 565 0 6 0 145 1 310 1 165 1 422 1 570 -1 357 -1 603 0
925 0 146 0 405 -1 575 -1 171 -1 317 -1 325 1 45 1 487 0 553 -2 126 -34 209
-111 289 -71 73 -130 106 -223 123 -16 3 -167 5 -335 4 -331 -1 -370 0 -380 6
-4 3 -9 3 -11 0z"/>
<path d="M4469 8276 c-84 -34 -124 -62 -172 -119 -73 -89 -97 -160 -97 -297 0
-46 -1 -69 -3 -100 -1 -14 1 -37 4 -51 4 -15 3 -32 -1 -39 -4 -7 -4 -26 0 -41
5 -16 5 -29 0 -29 -5 0 -5 -13 0 -29 4 -16 6 -32 3 -35 -7 -7 -6 -153 1 -164
2 -4 1 -14 -4 -21 -4 -8 -4 -27 0 -42 5 -16 5 -29 0 -29 -5 0 -5 -13 0 -29 4
-15 4 -34 0 -42 -5 -7 -7 -16 -4 -21 3 -4 4 -33 4 -65 -1 -32 0 -67 0 -78 1
-11 1 -27 1 -35 -1 -8 0 -40 0 -70 1 -30 1 -62 0 -70 -1 -8 -1 -31 0 -50 1
-19 1 -42 0 -50 0 -8 0 -40 0 -70 1 -30 1 -61 0 -67 -2 -31 -3 -40 -2 -78 1
-22 0 -53 -2 -70 -1 -16 1 -42 4 -56 4 -15 3 -32 -1 -39 -4 -7 -4 -26 0 -41 5
-16 5 -29 0 -29 -5 0 -5 -13 0 -29 4 -16 6 -32 3 -35 -7 -7 -6 -153 1 -164 2
-4 1 -14 -4 -21 -4 -8 -4 -27 0 -42 5 -16 5 -29 0 -29 -5 0 -5 -13 0 -29 4
-15 4 -34 0 -42 -5 -7 -7 -16 -4 -21 3 -4 4 -33 4 -65 -1 -32 0 -67 0 -78 1
-11 1 -27 1 -35 -1 -8 0 -40 0 -70 1 -30 1 -62 0 -70 -1 -8 -1 -31 0 -50 1
-19 1 -42 0 -50 0 -8 0 -40 0 -70 1 -30 1 -61 0 -67 -2 -31 -3 -40 -2 -78 1
-22 0 -53 -2 -70 -1 -16 1 -42 4 -56 4 -15 3 -32 -1 -39 -4 -7 -4 -26 0 -41 5
-16 5 -29 0 -29 -5 0 -5 -13 0 -29 4 -15 4 -34 0 -42 -5 -7 -7 -16 -5 -19 2
-4 4 -44 4 -91 0 -46 1 -100 2 -119 1 -19 1 -42 0 -50 0 -8 0 -51 0 -95 0 -44
0 -93 -1 -110 0 -16 0 -46 1 -65 1 -19 1 -42 0 -50 -3 -68 -2 -191 3 -198 2
-4 1 -14 -4 -21 -4 -8 -4 -27 0 -42 5 -16 5 -29 0 -29 -5 0 -5 -13 0 -29 4
-15 5 -34 1 -40 -4 -7 -5 -31 -2 -54 4 -23 4 -55 1 -72 -4 -16 -3 -39 0 -50 4
-11 4 -28 1 -38 -4 -10 -4 -43 -1 -73 3 -30 3 -59 0 -65 -4 -6 -4 -27 0 -48 4
-20 4 -45 1 -54 -4 -10 -4 -47 -1 -82 3 -36 3 -65 -1 -65 -12 0 21 -143 44
-188 52 -106 161 -189 278 -213 30 -6 60 -10 67 -10 34 3 159 3 217 0 22 0 47
-1 55 0 8 1 26 1 40 0 14 0 32 -1 40 0 8 0 80 0 160 0 80 0 151 0 158 0 19 1
43 2 102 1 146 0 254 42 337 133 26 29 63 87 68 107 1 3 4 12 8 20 14 36 26
98 24 132 -1 21 1 39 4 40 4 2 4 23 0 48 -4 25 -4 59 -1 75 3 17 3 49 -1 72
-3 23 -2 44 2 45 4 2 4 23 0 48 -4 25 -4 59 -1 75 3 17 3 49 -1 72 -3 23 -2
44 2 45 4 2 4 23 0 48 -4 25 -4 59 -1 75 3 17 3 49 -1 73 -3 23 -3 42 0 42 3
0 5 44 3 97 -1 54 -2 127 -1 163 0 36 1 72 0 80 0 8 0 44 0 80 1 36 1 72 0 80
0 8 0 44 0 80 1 36 0 76 -1 90 -1 14 -1 31 -1 38 2 27 2 39 2 97 0 107 -2 138
-7 146 -2 4 0 9 5 11 5 1 6 23 2 48 -4 25 -4 59 -1 75 3 17 3 49 -1 72 -3 23
-2 44 2 45 4 2 4 23 0 48 -4 25 -4 59 -1 75 3 17 3 49 -1 72 -3 23 -2 44 2 45
4 2 4 23 0 48 -4 25 -4 59 -1 75 3 17 3 49 -1 72 -3 23 -2 44 2 45 4 2 4 23 0
48 -4 25 -4 59 -1 75 3 17 3 49 -1 73 -3 23 -3 42 0 42 4 0 5 26 4 58 -2 31
-3 82 -3 112 1 92 -1 133 -6 141 -2 4 0 9 5 11 5 1 6 23 2 48 -4 25 -4 59 -1
75 3 17 3 49 -1 72 -3 23 -2 44 2 45 4 2 4 23 0 48 -4 25 -4 59 -1 75 3 17 3
49 -1 72 -3 23 -2 44 2 45 4 2 4 23 0 48 -4 25 -4 59 -1 75 3 17 3 49 -1 72
-3 23 -2 44 2 45 4 2 4 23 0 48 -4 25 -4 59 -1 75 3 17 3 49 -1 73 -3 23 -3
42 0 42 4 0 5 26 4 58 -2 31 -3 82 -3 112 1 92 -1 133 -6 141 -2 4 0 9 5 11 5
1 6 23 2 48 -4 25 -4 59 0 77 3 17 3 37 -1 43 -4 7 -4 26 0 44 4 17 3 40 -1
51 -4 11 -8 32 -8 48 -1 15 -5 35 -10 45 -5 9 -17 35 -27 56 -11 22 -26 47
-34 56 -8 10 -23 26 -32 36 -30 33 -54 54 -63 54 -5 0 -16 7 -25 15 -9 8 -43
24 -76 34 -55 18 -91 20 -529 20 -466 0 -470 0 -526 -23z"/>
</g>
</svg>
